<?xml version="1.0" standalone="no"?>
<!DOCTYPE svg PUBLIC "-//W3C//DTD SVG 20010904//EN"
 "http://www.w3.org/TR/2001/REC-SVG-20010904/DTD/svg10.dtd">
<svg version="1.0" xmlns="http://www.w3.org/2000/svg"
 width="512.000000pt" height="512.000000pt" viewBox="0 0 512.000000 512.000000"
 preserveAspectRatio="xMidYMid meet">
<metadata>
Created by potrace 1.14, written by Peter Selinger 2001-2017
</metadata>
<g transform="translate(0.000000,512.000000) scale(0.100000,-0.100000)"
fill="#000000" stroke="none">
<path d="M1875 4855 c-196 -43 -349 -146 -452 -305 -72 -110 -106 -215 -128
-392 -4 -32 -10 -56 -14 -54 -3 2 -7 -11 -7 -29 -1 -18 -4 -48 -8 -67 -6 -34
-6 -34 -64 -35 -31 -1 -57 -2 -57 -3 0 -3 -62 -8 -170 -14 -55 -3 -100 -6
-100 -7 0 -1 -27 -4 -126 -13 -182 -16 -295 -55 -409 -142 -58 -44 -145 -134
-169 -175 -28 -46 -71 -138 -71 -149 0 -6 -3 -9 -7 -7 -5 3 -9 -5 -10 -16 0
-12 -8 -49 -15 -82 -8 -33 -14 -86 -13 -117 0 -32 -3 -58 -8 -58 -6 0 -6 -5 0
-12 5 -7 10 -29 12 -47 1 -19 4 -37 6 -39 2 -3 0 -13 -6 -23 -5 -11 -6 -19 -1
-19 5 0 10 -28 11 -62 2 -35 4 -79 6 -98 2 -19 6 -62 9 -95 3 -33 8 -98 11
-145 4 -47 8 -103 11 -125 2 -22 6 -87 9 -145 2 -58 5 -105 6 -105 4 0 15
-125 24 -280 3 -44 8 -91 11 -103 3 -18 1 -22 -8 -16 -10 6 -10 5 -2 -7 7 -8
15 -52 18 -99 4 -47 9 -107 11 -135 2 -27 6 -84 10 -125 3 -41 8 -106 11 -145
2 -38 6 -90 8 -115 3 -25 8 -85 11 -135 3 -49 8 -91 10 -94 2 -2 0 -13 -6 -24
-8 -14 -8 -18 0 -13 7 5 11 -11 12 -51 0 -32 2 -65 4 -73 17 -79 28 -116 46
-162 21 -54 77 -150 91 -156 5 -2 8 -8 8 -13 0 -16 108 -117 168 -158 70 -47
176 -90 262 -106 66 -13 269 -13 289 -1 6 4 11 2 11 -5 0 -8 4 -8 13 -2 6 6
19 10 27 10 16 0 180 12 245 18 22 2 80 6 130 10 49 4 94 9 99 12 5 4 6 0 1
-7 -6 -9 -4 -11 6 -4 15 9 31 11 154 18 44 3 80 6 80 7 0 2 48 6 155 13 52 3
107 7 123 9 15 3 27 -1 27 -7 0 -7 3 -7 8 1 4 7 45 14 100 17 50 3 96 7 100
10 4 2 14 1 22 -4 8 -5 19 -5 25 0 6 5 53 11 105 14 52 3 106 7 120 10 14 2
70 7 125 10 104 7 149 10 275 22 41 4 94 7 117 8 24 0 43 4 43 9 0 4 7 7 15 7
26 0 124 38 173 66 26 15 48 27 49 26 2 -1 14 10 27 23 14 14 32 25 41 25 9 0
14 4 11 8 -7 12 33 44 46 36 7 -5 8 -2 3 5 -4 8 1 21 14 32 12 11 21 24 21 30
0 6 4 8 9 5 5 -3 11 2 13 12 5 17 10 18 74 7 38 -7 80 -11 94 -10 14 2 28 -2
33 -9 5 -7 9 -8 15 -1 4 6 18 11 32 11 38 2 101 12 138 23 17 5 32 7 32 3 0
-4 4 -1 8 6 5 7 22 14 39 15 17 1 29 5 27 8 -2 4 11 13 29 20 17 7 34 16 37
20 3 4 11 9 18 11 30 7 212 181 212 203 0 6 13 29 30 53 33 50 77 174 85 247
4 28 13 77 20 110 7 33 16 80 19 105 4 25 8 54 10 65 3 11 5 33 5 48 1 16 4
26 9 24 4 -3 7 11 8 31 0 32 8 86 14 102 1 3 2 9 1 13 -1 5 3 34 9 65 15 78
17 87 30 172 12 81 16 103 24 136 2 12 7 45 11 75 3 30 8 62 11 72 3 10 7 32
10 50 2 18 6 43 9 57 2 14 7 39 10 55 3 17 7 41 10 55 3 14 7 41 10 60 3 19 7
45 9 56 6 31 24 144 30 189 2 17 7 41 10 55 7 32 25 132 41 243 3 15 7 39 10
55 4 15 8 36 9 47 2 11 4 20 5 20 1 0 4 18 6 40 2 22 15 108 30 190 36 199 34
189 35 275 1 93 -6 135 -35 227 -12 40 -21 75 -19 78 2 3 1 3 -2 0 -4 -2 -16
15 -27 38 -12 23 -27 48 -34 55 -7 7 -13 17 -13 21 0 14 -126 138 -175 171
-41 29 -111 67 -135 75 -106 33 -123 37 -196 50 -41 7 -55 9 -141 21 -29 4
-51 9 -49 13 2 3 -10 6 -27 5 -18 -1 -45 3 -62 7 -16 4 -48 10 -70 13 -22 3
-53 8 -70 11 -16 3 -57 9 -90 15 -33 6 -73 12 -90 16 -16 3 -43 7 -60 10 -16
3 -82 14 -145 25 -63 10 -126 21 -140 24 -14 3 -45 7 -70 10 -25 3 -56 8 -70
11 -40 9 -104 20 -169 30 -25 4 -50 9 -56 12 -5 3 -27 7 -50 8 -22 2 -49 5
-60 8 -11 2 -46 7 -77 11 -32 4 -56 10 -54 14 2 3 -10 6 -27 7 -18 0 -50 3
-72 7 -22 3 -58 8 -80 12 -22 3 -60 10 -85 16 -25 5 -61 11 -80 13 -19 2 -46
6 -60 10 -24 5 -77 14 -133 22 -15 2 -39 6 -55 10 -55 12 -228 12 -287 -1z"/>
<path d="M1196 4207 c3 -10 9 -15 12 -12 3 3 0 11 -7 18 -10 9 -11 8 -5 -6z"/>
<path d="M1149 4083 c-13 -16 -12 -17 4 -4 9 7 17 15 17 17 0 8 -8 3 -21 -13z"/>
<path d="M3636 647 c3 -10 9 -15 12 -12 3 3 0 11 -7 18 -10 9 -11 8 -5 -6z"/>
<path d="M3590 559 c0 -5 5 -7 10 -4 6 3 10 8 10 11 0 2 -4 4 -10 4 -5 0 -10
-5 -10 -11z"/>
<path d="M350 456 c0 -2 8 -10 18 -17 15 -13 16 -12 3 4 -13 16 -21 21 -21 13z"/>
<path d="M2870 296 c0 -2 8 -10 18 -17 15 -13 16 -12 3 4 -13 16 -21 21 -21
13z"/>
<path d="M630 281 c0 -6 4 -13 10 -16 6 -3 7 1 4 9 -7 18 -14 21 -14 7z"/>
</g>
</svg>
